<?xml version="1.0" encoding="UTF-8" standalone="no"?>
<svg
   xmlns:dc="http://purl.org/dc/elements/1.1/"
   xmlns:cc="http://creativecommons.org/ns#"
   xmlns:rdf="http://www.w3.org/1999/02/22-rdf-syntax-ns#"
   xmlns:svg="http://www.w3.org/2000/svg"
   xmlns="http://www.w3.org/2000/svg"
   xmlns:sodipodi="http://sodipodi.sourceforge.net/DTD/sodipodi-0.dtd"
   xmlns:inkscape="http://www.inkscape.org/namespaces/inkscape"
   viewBox="0 0 34.007366 31.526691"
   version="1.1"
   id="svg947"
   sodipodi:docname="icon.svg"
   inkscape:version="0.92.2 5c3e80d, 2017-08-06"
   width="34.007366"
   height="31.526691"
   inkscape:export-filename="/home/ryan/Documents/git/cubemoji/assets/icon.png"
   inkscape:export-xdpi="1412.8981"
   inkscape:export-ydpi="1412.8981">
  <metadata
     id="metadata953">
    <rdf:RDF>
      <cc:Work
         rdf:about="">
        <dc:format>image/svg+xml</dc:format>
        <dc:type
           rdf:resource="http://purl.org/dc/dcmitype/StillImage" />
        <dc:title></dc:title>
      </cc:Work>
    </rdf:RDF>
  </metadata>
  <defs
     id="defs951" />
  <sodipodi:namedview
     pagecolor="#ffffff"
     bordercolor="#666666"
     borderopacity="1"
     objecttolerance="10"
     gridtolerance="10"
     guidetolerance="10"
     inkscape:pageopacity="0"
     inkscape:pageshadow="2"
     inkscape:window-width="1920"
     inkscape:window-height="1149"
     id="namedview949"
     showgrid="false"
     inkscape:zoom="13.125"
     inkscape:cx="22.154131"
     inkscape:cy="6.9030589"
     inkscape:window-x="1920"
     inkscape:window-y="0"
     inkscape:window-maximized="1"
     inkscape:current-layer="g1041"
     fit-margin-top="0"
     fit-margin-left="0"
     fit-margin-right="0"
     fit-margin-bottom="0" />
  <path
     d="m 3.6634482,5.2462513 c 1.928,0.786 5.193,1.693 8.2499998,2.556 2.76,0.78 4.727,1.8 4.727,4.2789997 0,1.126 -0.136,4.519 -0.185,8.533 0.41,-0.104 0.791,-0.153 1.196,-0.117 l -10e-4,-0.134 c -0.038,-4.321 -0.179,-8.044 -0.178,-9.239 0.003,-2.5289997 1.817,-2.2079997 4.667,-2.9959997 1.297,-0.359 7.232,-1.686 9.209,-2.103 1.658,-0.35 1.012,-1.059 0.494,-1.617 -0.034,0.107 -0.147,0.202 -0.383,0.273 -1.51,0.453 -10.716,2.236 -12.941,2.859 -1.569,0.439 -3.591,-0.367 -6.007,-1.349 -2.416,-0.981 -8.5299998,-2.416 -9.7379998,-2.869 -0.25,-0.094 -0.432,-0.222 -0.57,-0.362 -0.094,0.052 -0.19,0.103 -0.278,0.161 0.066,-0.003 0.12,-0.011 0.19,-0.012 0.477,-0.008 -0.195,1.427 1.548,2.137 z"
     id="path931"
     inkscape:connector-curvature="0"
     style="fill:#f5f8fa" />
  <path
     d="m 0.01244817,8.6392513 c 0.096,2.5529997 0.356,9.0299997 0.119,11.9409997 -0.157,1.923 0.24,3.361 0.99600003,4.403 0.204,-0.333 0.64,-0.608 1.36,-0.736 3.752,-0.669 9.8779998,-2.385 12.3439998,-3.136 0.654,-0.199 1.16,-0.378 1.625,-0.496 0.049,-4.014 0.185,-7.407 0.185,-8.533 0,-2.4789997 -1.967,-3.4989997 -4.727,-4.2789997 -3.0579998,-0.864 -6.3229998,-1.771 -8.2509998,-2.557 -1.743,-0.71 -1.071,-2.145 -1.548,-2.138 -0.069,10e-4 -0.123,0.01 -0.19,0.012 -1.62900003,1.079 -2.00300003,3.155 -1.91300003,5.519 z"
     id="path933"
     inkscape:connector-curvature="0"
     style="fill:#add3e0" />
  <path
     d="m 32.211448,25.567251 c 0.425,0.097 0.866,0.309 1.268,0.583 0.438,-0.907 0.341,-2.082 0.275,-3.431 -0.119,-2.436 0.059,-10.099 0.238,-13.6039997 0.148,-2.909 -0.822,-4.267 -2.167,-4.907 0.037,0.071 0.038,0.137 0.019,0.2 0.517,0.558 1.163,1.267 -0.494,1.617 -1.978,0.417 -7.912,1.745 -9.209,2.103 -2.85,0.788 -4.664,0.467 -4.667,2.9959997 -10e-4,1.195 0.14,4.919 0.178,9.239 l 0.001,0.134 c 0.47,0.042 0.98,0.194 1.638,0.526 1.367,0.691 10.883,4.079 12.92,4.544 z"
     id="path935"
     inkscape:connector-curvature="0"
     style="fill:#c1e1ea" />
  <path
     d="m 12.512448,6.1912513 c 2.416,0.981 4.437,1.788 6.007,1.349 2.225,-0.622 11.431,-2.406 12.941,-2.859 0.237,-0.071 0.35,-0.166 0.383,-0.273 -0.109,-0.117 -0.211,-0.228 -0.286,-0.327 -0.193,-0.076 -0.391,-0.142 -0.595,-0.194 -2.554,-0.654 -8.436,-2.495 -10.931,-3.38600003 -1.977,-0.706 -4.487,-0.591 -6.594,-0.119 -2.34,0.524 -7.0809998,1.70600003 -9.4459998,2.02000003 -0.71,0.094 -1.296,0.289 -1.788,0.559 0.138,0.139 0.32,0.268 0.57,0.362 1.209,0.452 7.3229998,1.886 9.7389998,2.868 z"
     id="path937"
     inkscape:connector-curvature="0"
     style="fill:#d2ecf3" />
  <path
     d="m 17.651448,20.497251 c -0.405,-0.036 -0.786,0.014 -1.196,0.117 l -0.006,0.493 c -0.048,4.716 0.194,8.644 0.127,9.281 -0.046,0.438 -0.315,0.814 -0.717,1.072 0.821,0.1 1.641,0.088 2.424,-0.042 -0.451,-0.385 -0.71,-0.998 -0.771,-1.608 -0.064,-0.655 0.176,-4.556 0.139,-9.313 z"
     id="path939"
     inkscape:connector-curvature="0"
     style="opacity:0.5;fill:#cfe1ea" />
  <path
     d="m 16.576448,30.388251 c 0.067,-0.637 -0.176,-4.564 -0.127,-9.281 l 0.006,-0.493 c -0.465,0.117 -0.971,0.297 -1.625,0.496 -2.466,0.751 -8.5919998,2.467 -12.3439998,3.136 -0.719,0.128 -1.156,0.404 -1.36,0.736 0.548,0.754 1.279,1.308 2.152,1.657 2.079,0.832 6.7719998,2.495 9.7429998,3.98 0.9,0.45 1.868,0.721 2.838,0.84 0.403,-0.257 0.671,-0.633 0.717,-1.071 z m 14.505,-2.62 c 1.347,-0.331 2.046,-0.888 2.398,-1.618 -0.402,-0.274 -0.843,-0.486 -1.268,-0.583 -2.037,-0.465 -11.554,-3.853 -12.922,-4.544 -0.658,-0.332 -1.168,-0.485 -1.638,-0.526 0.037,4.758 -0.203,8.658 -0.138,9.313 0.061,0.611 0.32,1.223 0.771,1.608 0.503,-0.083 0.991,-0.207 1.451,-0.382 2.019,-0.773 8.197,-2.496 11.346,-3.268 z"
     id="path941"
     inkscape:connector-curvature="0"
     style="fill:#9bc2d4" />
  <path
     d="m 6.5744482,16.457251 c -3.911,3.322 -5.322,9.72 -5.206,6.824 0.096,-2.391 -0.017,-9.487 -0.006,-12.439 0.009,-2.4909997 0.416,-4.6339997 3.725,-3.0949997 2.538,1.18 7.1999998,2.114 9.3839998,3.5899997 1.411,0.954 -2.464,0.505 -7.8969998,5.12 z"
     id="path943"
     inkscape:connector-curvature="0"
     style="fill:#c1e1ea" />
  <path
     d="m 29.172448,13.206251 c 2.65,1.793 3.569,5.587 3.497,3.781 -0.06,-1.491 0.006,-4.939 0,-6.779 -0.006,-1.5529997 0.19,-2.8739997 -1.997,-2.2449997 -1.88,0.54 -5.124,0.847 -6.486,1.767 -0.88,0.5939997 1.408,1.0559997 4.986,3.4759997 z"
     id="path945"
     inkscape:connector-curvature="0"
     style="fill:#d2ecf3" />
  <g
     id="g1041"
     transform="matrix(0.68635703,-0.22167828,0,0.82742379,13.235937,6.6916758)">
    <circle
       id="circle1007"
       r="4.5"
       cy="14.5"
       cx="24.5"
       style="fill:#ffffff" />
    <circle
       id="circle1009"
       r="2.721"
       cy="14.5"
       cx="24.5"
       style="fill:#216778;fill-opacity:1" />
    <circle
       id="circle1011"
       r="4.5"
       cy="14.5"
       cx="11.5"
       style="fill:#ffffff" />
    <path
       id="path1013"
       d="M 29,25.5 C 29,26.881 27.881,28 26.5,28 H 9.5 C 8.119,28 7,26.881 7,25.5 7,24.119 8.119,23 9.5,23 h 17 c 1.381,0 2.5,1.119 2.5,2.5 z"
       inkscape:connector-curvature="0"
       style="fill:#f5f8fa" />
    <path
       id="path1015"
       d="m 17,23 h 2 v 5 h -2 z m -5,0 h 2 v 5 h -2 z m 10,0 h 2 v 5 H 22 Z M 7,25.5 c 0,1.21 0.859,2.218 2,2.45 v -4.9 C 7.859,23.282 7,24.29 7,25.5 Z m 20,-2.45 v 4.899 c 1.141,-0.232 2,-1.24 2,-2.45 0,-1.21 -0.859,-2.217 -2,-2.449 z"
       inkscape:connector-curvature="0"
       style="fill:#ccd6dd" />
    <circle
       id="circle1017"
       r="2.721"
       cy="14.5"
       cx="11.5"
       style="fill:#216778;fill-opacity:1" />
  </g>
  <g
     id="g1835"
     transform="matrix(0.4828019,0.16896305,0,0.61615128,-0.29122085,3.4580019)">
    <circle
       id="circle1805"
       r="5"
       cy="23"
       cx="29"
       style="fill:#ff7892" />
    <circle
       id="circle1807"
       r="5"
       cy="23"
       cx="7"
       style="fill:#ff7892" />
    <circle
       id="circle1809"
       r="5.5"
       cy="16.5"
       cx="24.5"
       style="fill:#f5f8fa" />
    <circle
       id="circle1811"
       r="5.5"
       cy="16.5"
       cx="11.5"
       style="fill:#f5f8fa" />
    <circle
       id="circle1813"
       r="2.5"
       cy="16.5"
       cx="11.5"
       style="fill:#292f33" />
    <circle
       id="circle1815"
       r="2.5"
       cy="16.5"
       cx="24.5"
       style="fill:#292f33" />
    <path
       id="path1817"
       d="m 22,30 h -8 c -0.552,0 -1,-0.447 -1,-1 0,-0.553 0.448,-1 1,-1 h 8 c 0.553,0 1,0.447 1,1 0,0.553 -0.447,1 -1,1 z M 30.001,11 C 29.696,11 29.397,10.862 29.2,10.6 26.56,7.079 23.139,7.002 22.994,7 22.444,6.994 22,6.544 22.003,5.995 22.006,5.444 22.45,5 23,5 c 0.184,0 4.537,0.05 7.8,4.4 0.332,0.442 0.242,1.069 -0.2,1.4 -0.18,0.135 -0.39,0.2 -0.599,0.2 z M 5.999,11 C 5.791,11 5.58,10.935 5.4,10.8 4.958,10.469 4.869,9.842 5.2,9.4 8.462,5.05 12.816,5 13,5 13.552,5 14,5.448 14,6 14,6.551 13.555,6.998 13.004,7 12.849,7.002 9.436,7.086 6.8,10.6 6.604,10.862 6.303,11 5.999,11 Z"
       inkscape:connector-curvature="0"
       style="fill:#216778" />
  </g>
  <g
     id="g2052"
     transform="matrix(0.50806623,-0.10269024,0.29333218,0.17786472,3.2198829,2.6566542)">
    <path
       id="path2016"
       d="m 20.996,27 c -0.103,0 -0.206,-0.016 -0.309,-0.049 -1.76,-0.571 -3.615,-0.571 -5.375,0 -0.524,0.169 -1.089,-0.117 -1.26,-0.642 -0.171,-0.525 0.117,-1.089 0.643,-1.26 2.162,-0.702 4.447,-0.702 6.609,0 0.525,0.171 0.813,0.735 0.643,1.26 C 21.81,26.73 21.418,27 20.996,27 Z"
       inkscape:connector-curvature="0"
       style="fill:#65471b" />
    <path
       id="path2018"
       d="m 30.335,12.068 c -0.903,2.745 -3.485,4.715 -6.494,4.715 -0.144,0 -0.289,-0.005 -0.435,-0.014 -1.477,-0.093 -2.842,-0.655 -3.95,-1.584 0.036,0.495 0.076,0.997 0.136,1.54 0.152,1.388 0.884,2.482 2.116,3.163 0.82,0.454 1.8,0.688 2.813,0.752 1.734,0.109 3.57,-0.28 4.873,-0.909 1.377,-0.665 2.272,-1.862 2.456,-3.285 0.183,-1.415 -0.354,-2.924 -1.515,-4.378 z"
       inkscape:connector-curvature="0"
       style="fill:#ffffff" />
    <path
       id="path2020"
       d="m 21.351,7.583 c -1.297,0.55 -1.947,2.301 -1.977,5.289 l 0.039,0.068 c 0.897,1.319 2.373,2.224 4.088,2.332 0.114,0.007 0.228,0.011 0.341,0.011 2.634,0 4.849,-1.937 5.253,-4.524 -0.115,-0.105 -0.221,-0.212 -0.343,-0.316 -3.715,-3.17 -6.467,-3.257 -7.401,-2.86 z"
       inkscape:connector-curvature="0"
       style="fill:#216778;fill-opacity:1" />
    <path
       id="path2022"
       d="m 23.841,16.783 c 3.009,0 5.591,-1.97 6.494,-4.715 -0.354,-0.443 -0.771,-0.88 -1.241,-1.309 -0.404,2.587 -2.619,4.524 -5.253,4.524 -0.113,0 -0.227,-0.004 -0.341,-0.011 -1.715,-0.108 -3.191,-1.013 -4.088,-2.332 l -0.039,-0.068 c -0.007,0.701 0.021,1.473 0.083,2.313 1.108,0.929 2.473,1.491 3.95,1.584 0.146,0.01 0.291,0.014 0.435,0.014 z"
       inkscape:connector-curvature="0"
       style="fill:#0088aa" />
    <circle
       id="circle2024"
       r="1.107"
       cy="10.705"
       cx="21.413"
       style="fill:#ffffff" />
    <path
       id="path2026"
       d="m 12.159,16.783 c -3.009,0 -5.591,-1.97 -6.494,-4.715 -1.161,1.454 -1.697,2.963 -1.515,4.377 0.185,1.423 1.079,2.621 2.456,3.285 1.303,0.629 3.138,1.018 4.873,0.909 1.013,-0.064 1.993,-0.297 2.813,-0.752 1.231,-0.681 1.963,-1.775 2.116,-3.163 0.06,-0.542 0.1,-1.042 0.136,-1.536 -1.103,0.923 -2.47,1.487 -3.95,1.58 -0.146,0.011 -0.291,0.015 -0.435,0.015 z"
       inkscape:connector-curvature="0"
       style="fill:#ffffff" />
    <path
       id="path2028"
       d="m 12.159,15.283 c 0.113,0 0.227,-0.004 0.341,-0.011 1.715,-0.108 3.191,-1.013 4.088,-2.332 l 0.039,-0.068 C 16.596,9.884 15.947,8.133 14.65,7.583 13.716,7.186 10.963,7.273 7.249,10.442 c -0.122,0.104 -0.227,0.211 -0.343,0.316 0.404,2.588 2.619,4.525 5.253,4.525 z"
       inkscape:connector-curvature="0"
       style="fill:#216778;fill-opacity:1" />
    <path
       id="path2030"
       d="m 16.626,12.872 -0.039,0.068 c -0.897,1.319 -2.373,2.224 -4.088,2.332 -0.114,0.007 -0.228,0.011 -0.341,0.011 -2.634,0 -4.849,-1.937 -5.253,-4.524 -0.47,0.429 -0.887,0.866 -1.241,1.309 0.903,2.745 3.485,4.715 6.494,4.715 0.144,0 0.289,-0.005 0.435,-0.014 1.48,-0.093 2.847,-0.657 3.95,-1.58 0.062,-0.841 0.091,-1.614 0.083,-2.317 z"
       inkscape:connector-curvature="0"
       style="fill:#0088aa" />
    <path
       id="path2032"
       d="m 9.781,11.81 c 0.61,-0.038 1.074,-0.564 1.035,-1.174 -0.038,-0.61 -0.564,-1.074 -1.174,-1.036 -0.61,0.038 -1.074,0.564 -1.036,1.174 0.039,0.61 0.565,1.074 1.175,1.036 z"
       inkscape:connector-curvature="0"
       style="fill:#ffffff" />
  </g>
</svg>
