<?xml version="1.0" encoding="UTF-8" standalone="no"?>
<svg
   xmlns:dc="http://purl.org/dc/elements/1.1/"
   xmlns:cc="http://creativecommons.org/ns#"
   xmlns:rdf="http://www.w3.org/1999/02/22-rdf-syntax-ns#"
   xmlns:svg="http://www.w3.org/2000/svg"
   xmlns="http://www.w3.org/2000/svg"
   xmlns:sodipodi="http://sodipodi.sourceforge.net/DTD/sodipodi-0.dtd"
   xmlns:inkscape="http://www.inkscape.org/namespaces/inkscape"
   viewBox="0 0 32 23"
   version="1.1"
   id="svg1063"
   sodipodi:docname="flushed.svg"
   width="32"
   height="23"
   inkscape:version="0.92.2 5c3e80d, 2017-08-06"
   inkscape:export-filename="/home/ryan/Documents/git/cubemoji/assets/flushed.png"
   inkscape:export-xdpi="768"
   inkscape:export-ydpi="768">
  <metadata
     id="metadata1069">
    <rdf:RDF>
      <cc:Work
         rdf:about="">
        <dc:format>image/svg+xml</dc:format>
        <dc:type
           rdf:resource="http://purl.org/dc/dcmitype/StillImage" />
        <dc:title></dc:title>
      </cc:Work>
    </rdf:RDF>
  </metadata>
  <defs
     id="defs1067" />
  <sodipodi:namedview
     pagecolor="#ffffff"
     bordercolor="#666666"
     borderopacity="1"
     objecttolerance="10"
     gridtolerance="10"
     guidetolerance="10"
     inkscape:pageopacity="0"
     inkscape:pageshadow="2"
     inkscape:window-width="1920"
     inkscape:window-height="1149"
     id="namedview1065"
     showgrid="false"
     fit-margin-top="0"
     fit-margin-left="0"
     fit-margin-right="0"
     fit-margin-bottom="0"
     inkscape:zoom="18.541911"
     inkscape:cx="16.871737"
     inkscape:cy="9.728247"
     inkscape:window-x="1920"
     inkscape:window-y="0"
     inkscape:window-maximized="1"
     inkscape:current-layer="svg1063" />
  <circle
     cx="27"
     cy="18"
     r="5"
     id="circle1049"
     style="fill:#ff7993;fill-opacity:0.94117647" />
  <circle
     cx="5"
     cy="18"
     r="5"
     id="circle1051"
     style="fill:#ff7993;fill-opacity:0.94117647" />
  <circle
     cx="22.5"
     cy="11.5"
     r="5.5"
     id="circle1053"
     style="fill:#f5f8fa" />
  <circle
     cx="9.5"
     cy="11.5"
     r="5.5"
     id="circle1055"
     style="fill:#f5f8fa" />
  <circle
     cx="9.5"
     cy="11.5"
     r="2.5"
     id="circle1057"
     style="fill:#292f33" />
  <circle
     cx="22.5"
     cy="11.5"
     r="2.5"
     id="circle1059"
     style="fill:#292f33" />
  <path
     d="M 28.001,6 C 27.696,6 27.397,5.862 27.2,5.6 24.56,2.079 21.139,2.002 20.994,2 20.444,1.994 20,1.544 20.003,0.995 20.006,0.444 20.45,0 21,0 c 0.184,0 4.537,0.05 7.8,4.4 0.332,0.442 0.242,1.069 -0.2,1.4 C 28.42,5.935 28.21,6 28.001,6 Z M 3.999,6 C 3.791,6 3.58,5.935 3.4,5.8 2.958,5.469 2.869,4.842 3.2,4.4 6.462,0.05 10.816,0 11,0 11.552,0 12,0.448 12,1 12,1.551 11.555,1.998 11.004,2 10.849,2.002 7.436,2.086 4.8,5.6 4.604,5.862 4.303,6 3.999,6 Z"
     id="path1061"
     style="fill:#292f33;fill-opacity:1"
     inkscape:connector-curvature="0"
     sodipodi:nodetypes="scccsccssccssccs" />
</svg>
