<?xml version="1.0" encoding="UTF-8" standalone="no"?>
<svg
   xmlns:dc="http://purl.org/dc/elements/1.1/"
   xmlns:cc="http://creativecommons.org/ns#"
   xmlns:rdf="http://www.w3.org/1999/02/22-rdf-syntax-ns#"
   xmlns:svg="http://www.w3.org/2000/svg"
   xmlns="http://www.w3.org/2000/svg"
   xmlns:sodipodi="http://sodipodi.sourceforge.net/DTD/sodipodi-0.dtd"
   xmlns:inkscape="http://www.inkscape.org/namespaces/inkscape"
   viewBox="0 0 33.981857 24.000278"
   version="1.1"
   id="svg10"
   sodipodi:docname="joy.svg"
   inkscape:version="0.92.2 5c3e80d, 2017-08-06"
   width="33.981857"
   height="24.000278"
   inkscape:export-filename="/home/ryan/Documents/git/cubemoji/assets/joy.png"
   inkscape:export-xdpi="723.21002"
   inkscape:export-ydpi="723.21002">
  <metadata
     id="metadata16">
    <rdf:RDF>
      <cc:Work
         rdf:about="">
        <dc:format>image/svg+xml</dc:format>
        <dc:type
           rdf:resource="http://purl.org/dc/dcmitype/StillImage" />
        <dc:title></dc:title>
      </cc:Work>
    </rdf:RDF>
  </metadata>
  <defs
     id="defs14" />
  <sodipodi:namedview
     pagecolor="#ffffff"
     bordercolor="#666666"
     borderopacity="1"
     objecttolerance="10"
     gridtolerance="10"
     guidetolerance="10"
     inkscape:pageopacity="0"
     inkscape:pageshadow="2"
     inkscape:window-width="1920"
     inkscape:window-height="1149"
     id="namedview12"
     showgrid="false"
     inkscape:zoom="6.5555556"
     inkscape:cx="-10.685707"
     inkscape:cy="14"
     inkscape:window-x="1920"
     inkscape:window-y="0"
     inkscape:window-maximized="1"
     inkscape:current-layer="svg10"
     fit-margin-top="0"
     fit-margin-left="0"
     fit-margin-right="0"
     fit-margin-bottom="0" />
  <path
     d="m 27.457733,9.7972785 c -0.06,-0.135 -1.499,-3.297 -4.457,-3.297 -2.957,0 -4.397,3.162 -4.457,3.297 -0.092,0.2069995 -0.032,0.4489995 0.145,0.5909995 0.175,0.142 0.426,0.147 0.61,0.014 0.012,-0.009 1.262,-0.9019995 3.702,-0.9019995 2.426,0 3.674,0.8809995 3.702,0.9009995 0.088,0.066 0.194,0.099 0.298,0.099 0.11,0 0.221,-0.037 0.312,-0.109 0.177,-0.142 0.238,-0.386 0.145,-0.5939995 z m -12,0 c -0.06,-0.135 -1.499,-3.297 -4.457,-3.297 -2.9570005,0 -4.3970005,3.162 -4.4570005,3.297 -0.092,0.2069995 -0.032,0.4489995 0.144,0.5909995 0.176,0.142 0.427,0.147 0.61,0.014 0.013,-0.009 1.262,-0.9019995 3.7030005,-0.9019995 2.426,0 3.674,0.8809995 3.702,0.9009995 0.088,0.066 0.194,0.099 0.298,0.099 0.11,0 0.221,-0.037 0.312,-0.109 0.178,-0.142 0.237,-0.386 0.145,-0.5939995 z m 14.543,-1.797 c -0.396,0 -0.772,-0.238 -0.929,-0.629 -1.778,-4.445 -6.223,-5.381 -6.268,-5.391 -0.541,-0.108 -0.893,-0.635 -0.784,-1.17700003 0.108,-0.542 0.635,-0.891 1.177,-0.784 0.226,0.045 5.556,1.16800003 7.732,6.60800003 0.205,0.513 -0.045,1.095 -0.558,1.3 -0.12,0.05 -0.246,0.073 -0.37,0.073 z m -26.0000005,0 c -0.124,0 -0.249,-0.023 -0.371,-0.072 -0.513,-0.205 -0.762,-0.787 -0.557,-1.3 2.176,-5.44 7.5060005,-6.56300003 7.7320005,-6.60800003 0.543,-0.106 1.068,0.243 1.177,0.784 0.108,0.54000003 -0.242,1.06600003 -0.781,1.17600003 -0.185,0.038 -4.5060005,0.98 -6.2710005,5.391 -0.157,0.391 -0.533,0.629 -0.929,0.629 z M 17.000733,14.000278 c -3.623,0 -6.027,-0.422 -9.0000005,-1 -0.679,-0.131 -2,0 -2,2 0,4 4.5950005,9 11.0000005,9 6.404,0 11,-5 11,-9 0,-2 -1.321,-2.132 -2,-2 -2.973,0.578 -5.377,1 -9,1 z"
     id="path4"
     inkscape:connector-curvature="0"
     style="fill:#292f33;fill-opacity:1" />
  <path
     d="m 8.0007325,15.000278 c 0,0 3.0000005,1 9.0000005,1 6,0 9,-1 9,-1 0,0 -2,4 -9,4 -7,0 -9.0000005,-4 -9.0000005,-4 z"
     id="path6"
     inkscape:connector-curvature="0"
     style="fill:#ffffff" />
  <path
     d="m 9.8477325,20.229278 c -0.68,2.677 -3.4,4.295 -6.077,3.615 -2.676,-0.679 -4.295,-3.399 -3.616,-6.076 0.679,-2.677 6.337,-8.7079995 7.307,-8.4619995 0.97,0.247 3.0650005,8.2469995 2.386,10.9229995 z m 14.2860005,0 c 0.68,2.677 3.4,4.295 6.077,3.615 2.677,-0.679 4.296,-3.399 3.616,-6.076 -0.68,-2.677 -6.338,-8.7079995 -7.308,-8.4619995 -0.968,0.247 -3.064,8.2469995 -2.385,10.9229995 z"
     id="path8"
     inkscape:connector-curvature="0"
     style="fill:#5dadec" />
</svg>
