<?xml version="1.0" encoding="UTF-8" standalone="no"?>
<svg
   xmlns:dc="http://purl.org/dc/elements/1.1/"
   xmlns:cc="http://creativecommons.org/ns#"
   xmlns:rdf="http://www.w3.org/1999/02/22-rdf-syntax-ns#"
   xmlns:svg="http://www.w3.org/2000/svg"
   xmlns="http://www.w3.org/2000/svg"
   xmlns:sodipodi="http://sodipodi.sourceforge.net/DTD/sodipodi-0.dtd"
   xmlns:inkscape="http://www.inkscape.org/namespaces/inkscape"
   viewBox="0 0 25.996016 20.000809"
   version="1.1"
   id="svg6"
   sodipodi:docname="pensive.svg"
   inkscape:version="0.92.2 5c3e80d, 2017-08-06"
   width="25.996016"
   height="20.000809"
   inkscape:export-filename="/home/ryan/Documents/git/cubemoji/assets/pensive.png"
   inkscape:export-xdpi="945.56177"
   inkscape:export-ydpi="945.56177">
  <metadata
     id="metadata12">
    <rdf:RDF>
      <cc:Work
         rdf:about="">
        <dc:format>image/svg+xml</dc:format>
        <dc:type
           rdf:resource="http://purl.org/dc/dcmitype/StillImage" />
        <dc:title></dc:title>
      </cc:Work>
    </rdf:RDF>
  </metadata>
  <defs
     id="defs10" />
  <sodipodi:namedview
     pagecolor="#ffffff"
     bordercolor="#666666"
     borderopacity="1"
     objecttolerance="10"
     gridtolerance="10"
     guidetolerance="10"
     inkscape:pageopacity="0"
     inkscape:pageshadow="2"
     inkscape:window-width="1920"
     inkscape:window-height="1149"
     id="namedview8"
     showgrid="false"
     inkscape:zoom="18.541911"
     inkscape:cx="10.498791"
     inkscape:cy="9.871122"
     inkscape:window-x="1920"
     inkscape:window-y="0"
     inkscape:window-maximized="1"
     inkscape:current-layer="svg6"
     fit-margin-top="0"
     fit-margin-left="0"
     fit-margin-right="0"
     fit-margin-bottom="0" />
  <path
     d="m 12.312,9.6128091 c -0.176,-0.143 -0.427,-0.147 -0.61,-0.014 -0.012,0.009 -1.26,0.9019999 -3.702,0.9019999 -2.441,0 -3.69,-0.8929999 -3.7,-0.8999999 -0.183,-0.137 -0.435,-0.133 -0.611,0.009 -0.178,0.142 -0.238,0.386 -0.146,0.5939999 0.06,0.135 1.5,3.297 4.457,3.297 2.958,0 4.397,-3.162 4.457,-3.297 0.092,-0.2069999 0.032,-0.4489999 -0.145,-0.5909999 z m 10,0 c -0.176,-0.143 -0.426,-0.148 -0.61,-0.014 -0.012,0.009 -1.261,0.9019999 -3.702,0.9019999 -2.44,0 -3.69,-0.8929999 -3.7,-0.8999999 -0.183,-0.137 -0.434,-0.133 -0.611,0.009 -0.178,0.142 -0.238,0.386 -0.146,0.5939999 0.06,0.135 1.5,3.297 4.457,3.297 2.958,0 4.397,-3.162 4.457,-3.297 0.092,-0.2069999 0.032,-0.4489999 -0.145,-0.5909999 z M 17,20.000809 H 9 c -0.552,0 -1,-0.447 -1,-1 0,-0.553 0.448,-1 1,-1 h 8 c 0.553,0 1,0.447 1,1 0,0.553 -0.447,1 -1,1 z M 1,6.0008091 c -0.552,0 -1,-0.448 -1,-1 0,-0.551 0.445,-0.998 0.996,-1 0.156,-0.002 3.569,-0.086 6.205,-3.60000003 0.331,-0.44 0.957,-0.532 1.4,-0.2 0.442,0.331 0.531,0.95800003 0.2,1.40000003 -3.263,4.35 -7.617,4.4 -7.801,4.4 z m 24,0 c -0.184,0 -4.537,-0.05 -7.8,-4.4 -0.332,-0.442 -0.242,-1.06900003 0.2,-1.40000003 0.441,-0.333 1.067,-0.242 1.399,0.2 2.641,3.52100003 6.061,3.59900003 6.206,3.60000003 0.55,0.006 0.994,0.456 0.991,1.005 -0.002,0.551 -0.446,0.995 -0.996,0.995 z"
     id="path4"
     style="fill:#292f33;fill-opacity:1"
     inkscape:connector-curvature="0" />
</svg>
