<?xml version="1.0" encoding="UTF-8" standalone="no"?>
<svg
   xmlns:dc="http://purl.org/dc/elements/1.1/"
   xmlns:cc="http://creativecommons.org/ns#"
   xmlns:rdf="http://www.w3.org/1999/02/22-rdf-syntax-ns#"
   xmlns:svg="http://www.w3.org/2000/svg"
   xmlns="http://www.w3.org/2000/svg"
   xmlns:sodipodi="http://sodipodi.sourceforge.net/DTD/sodipodi-0.dtd"
   xmlns:inkscape="http://www.inkscape.org/namespaces/inkscape"
   viewBox="0 0 27.769876 19.583443"
   version="1.1"
   id="svg22"
   sodipodi:docname="plead.svg"
   inkscape:version="0.92.2 5c3e80d, 2017-08-06"
   width="27.769876"
   height="19.583443"
   inkscape:export-filename="/home/ryan/Documents/git/cubemoji/assets/plead.png"
   inkscape:export-xdpi="887.28015"
   inkscape:export-ydpi="887.28015">
  <metadata
     id="metadata28">
    <rdf:RDF>
      <cc:Work
         rdf:about="">
        <dc:format>image/svg+xml</dc:format>
        <dc:type
           rdf:resource="http://purl.org/dc/dcmitype/StillImage" />
        <dc:title></dc:title>
      </cc:Work>
    </rdf:RDF>
  </metadata>
  <defs
     id="defs26" />
  <sodipodi:namedview
     pagecolor="#ffffff"
     bordercolor="#666666"
     borderopacity="1"
     objecttolerance="10"
     gridtolerance="10"
     guidetolerance="10"
     inkscape:pageopacity="0"
     inkscape:pageshadow="2"
     inkscape:window-width="1920"
     inkscape:window-height="1149"
     id="namedview24"
     showgrid="false"
     inkscape:zoom="13.111111"
     inkscape:cx="-4.7879437"
     inkscape:cy="11.525845"
     inkscape:window-x="1920"
     inkscape:window-y="0"
     inkscape:window-maximized="1"
     inkscape:current-layer="svg22"
     fit-margin-top="0"
     fit-margin-left="0"
     fit-margin-right="0"
     fit-margin-bottom="0" />
  <path
     d="m 16.880792,19.583442 c -0.103,0 -0.206,-0.016 -0.309,-0.049 -1.76,-0.571 -3.615,-0.571 -5.375,0 -0.524,0.169 -1.089,-0.117 -1.26,-0.642 -0.171,-0.525 0.117,-1.089 0.643,-1.26 2.162,-0.702 4.447,-0.702 6.609,0 0.525,0.171 0.813,0.735 0.643,1.26 -0.137,0.421 -0.529,0.691 -0.951,0.691 z"
     id="path4"
     style="fill:#292f33;fill-opacity:1"
     inkscape:connector-curvature="0" />
  <path
     d="m 26.219792,4.6514423 c -0.903,2.745 -3.485,4.715 -6.494,4.715 -0.144,0 -0.289,-0.005 -0.435,-0.014 -1.477,-0.093 -2.842,-0.655 -3.95,-1.584 0.036,0.495 0.076,0.997 0.136,1.54 0.152,1.3879997 0.884,2.4819997 2.116,3.1629997 0.82,0.454 1.8,0.688 2.813,0.752 1.734,0.109 3.57,-0.28 4.873,-0.909 1.377,-0.665 2.272,-1.862 2.456,-3.2849997 0.183,-1.415 -0.354,-2.924 -1.515,-4.378 z"
     id="path6"
     inkscape:connector-curvature="0"
     style="fill:#ffffff" />
  <path
     d="m 17.235792,0.16644233 c -1.297,0.55 -1.947,2.30099997 -1.977,5.28899997 l 0.039,0.068 c 0.897,1.319 2.373,2.224 4.088,2.332 0.114,0.007 0.228,0.011 0.341,0.011 2.634,0 4.849,-1.937 5.253,-4.524 -0.115,-0.105 -0.221,-0.212 -0.343,-0.316 -3.715,-3.16999997 -6.467,-3.25699997 -7.401,-2.85999997 z"
     id="path8"
     style="fill:#292f33;fill-opacity:1"
     inkscape:connector-curvature="0" />
  <path
     d="m 19.725792,9.3664423 c 3.009,0 5.591,-1.97 6.494,-4.715 -0.354,-0.443 -0.771,-0.88 -1.241,-1.309 -0.404,2.587 -2.619,4.524 -5.253,4.524 -0.113,0 -0.227,-0.004 -0.341,-0.011 -1.715,-0.108 -3.191,-1.013 -4.088,-2.332 l -0.039,-0.068 c -0.007,0.701 0.021,1.473 0.083,2.313 1.108,0.929 2.473,1.491 3.95,1.584 0.146,0.01 0.291,0.014 0.435,0.014 z"
     id="path10"
     style="fill:#6d7e89;fill-opacity:1"
     inkscape:connector-curvature="0" />
  <circle
     cx="17.297792"
     cy="3.2884421"
     r="1.107"
     id="circle12"
     style="fill:#ffffff" />
  <path
     d="m 8.043792,9.3664423 c -3.009,0 -5.591,-1.97 -6.494,-4.715 -1.16100002,1.454 -1.69700002,2.963 -1.51500002,4.377 0.185,1.4229997 1.07900002,2.6209997 2.45600002,3.2849997 1.303,0.629 3.138,1.018 4.873,0.909 1.013,-0.064 1.993,-0.297 2.813,-0.752 1.231,-0.681 1.963,-1.775 2.116,-3.1629997 0.06,-0.542 0.1,-1.042 0.136,-1.536 -1.103,0.923 -2.47,1.487 -3.95,1.58 -0.146,0.011 -0.291,0.015 -0.435,0.015 z"
     id="path14"
     inkscape:connector-curvature="0"
     style="fill:#ffffff" />
  <path
     d="m 8.043792,7.8664423 c 0.113,0 0.227,-0.004 0.341,-0.011 1.715,-0.108 3.191,-1.013 4.088,-2.332 l 0.039,-0.068 c -0.031,-2.988 -0.68,-4.73899997 -1.977,-5.28899997 -0.934,-0.397 -3.687,-0.31 -7.401,2.85899997 -0.122,0.104 -0.227,0.211 -0.343,0.316 0.404,2.588 2.619,4.525 5.253,4.525 z"
     id="path16"
     style="fill:#292f33;fill-opacity:1"
     inkscape:connector-curvature="0" />
  <path
     d="m 12.510792,5.4554423 -0.039,0.068 c -0.897,1.319 -2.373,2.224 -4.088,2.332 -0.114,0.007 -0.228,0.011 -0.341,0.011 -2.634,0 -4.849,-1.937 -5.253,-4.524 -0.47,0.429 -0.887,0.866 -1.241,1.309 0.903,2.745 3.485,4.715 6.494,4.715 0.144,0 0.289,-0.005 0.435,-0.014 1.48,-0.093 2.847,-0.657 3.95,-1.58 0.062,-0.841 0.091,-1.614 0.083,-2.317 z"
     id="path18"
     style="fill:#6d7e89;fill-opacity:1"
     inkscape:connector-curvature="0" />
  <path
     d="m 5.665792,4.3934423 c 0.61,-0.038 1.074,-0.564 1.035,-1.174 -0.038,-0.61 -0.564,-1.074 -1.174,-1.036 -0.61,0.038 -1.074,0.564 -1.036,1.174 0.039,0.61 0.565,1.074 1.175,1.036 z"
     id="path20"
     inkscape:connector-curvature="0"
     style="fill:#ffffff" />
</svg>
