<?xml version="1.0" encoding="UTF-8" standalone="no"?>
<svg
   xmlns:dc="http://purl.org/dc/elements/1.1/"
   xmlns:cc="http://creativecommons.org/ns#"
   xmlns:rdf="http://www.w3.org/1999/02/22-rdf-syntax-ns#"
   xmlns:svg="http://www.w3.org/2000/svg"
   xmlns="http://www.w3.org/2000/svg"
   xmlns:sodipodi="http://sodipodi.sourceforge.net/DTD/sodipodi-0.dtd"
   xmlns:inkscape="http://www.inkscape.org/namespaces/inkscape"
   viewBox="0 0 22 27.002419"
   version="1.1"
   id="svg8"
   sodipodi:docname="weary.svg"
   width="22"
   height="27.002419"
   inkscape:version="0.92.2 5c3e80d, 2017-08-06"
   inkscape:export-filename="/home/ryan/Documents/git/cubemoji/assets/weary.png"
   inkscape:export-xdpi="1116.3445"
   inkscape:export-ydpi="1116.3445">
  <metadata
     id="metadata14">
    <rdf:RDF>
      <cc:Work
         rdf:about="">
        <dc:format>image/svg+xml</dc:format>
        <dc:type
           rdf:resource="http://purl.org/dc/dcmitype/StillImage" />
        <dc:title></dc:title>
      </cc:Work>
    </rdf:RDF>
  </metadata>
  <defs
     id="defs12" />
  <sodipodi:namedview
     pagecolor="#ffffff"
     bordercolor="#666666"
     borderopacity="1"
     objecttolerance="10"
     gridtolerance="10"
     guidetolerance="10"
     inkscape:pageopacity="0"
     inkscape:pageshadow="2"
     inkscape:window-width="1920"
     inkscape:window-height="1149"
     id="namedview10"
     showgrid="false"
     fit-margin-top="0"
     fit-margin-left="0"
     fit-margin-right="0"
     fit-margin-bottom="0"
     inkscape:zoom="18.541911"
     inkscape:cx="27.176406"
     inkscape:cy="11.384942"
     inkscape:window-x="1920"
     inkscape:window-y="0"
     inkscape:window-maximized="1"
     inkscape:current-layer="svg8" />
  <path
     d="m 9.664,7.5438441 c -0.207,-0.09 -0.451,-0.03 -0.592,0.148 -0.009,0.012 -0.979,1.202 -3.335,1.844 -0.775,0.212 -1.531,0.319 -2.245,0.319 -0.992,0 -1.559,-0.212 -1.562,-0.213 -0.21,-0.085 -0.453,-0.014 -0.587,0.169 -0.135,0.184 -0.128,0.4349999 0.016,0.6119999 0.071,0.087 1.78,2.147 4.125,2.147 0.351,0 0.702,-0.047 1.043,-0.14 2.854,-0.778 3.41,-4.2079999 3.432,-4.3539999 0.034,-0.223 -0.087,-0.441 -0.295,-0.532 z m 10.975,2.155 c -0.138,-0.181 -0.38,-0.245 -0.59,-0.159 -0.006,0.003 -0.633,0.256 -1.737,0.256 -0.661,0 -1.358,-0.089 -2.073,-0.265 -2.369,-0.583 -3.369,-1.749 -3.377,-1.758 -0.146,-0.176 -0.388,-0.233 -0.596,-0.137 -0.207,0.095 -0.323,0.318 -0.283,0.542 0.026,0.145 0.668,3.5599999 3.539,4.2669999 0.311,0.077 0.629,0.116 0.946,0.116 2.396,0 4.099,-2.16 4.17,-2.252 0.138,-0.181 0.137,-0.4299999 10e-4,-0.6099999 z m -17.641,-2.698 c -0.448,0 -0.855,-0.303 -0.969,-0.757 -0.133,-0.535 0.191,-1.077 0.724,-1.212 0.036,-0.009 3.593,-0.961 5.352,-4.478 0.247,-0.494 0.846,-0.695 1.342,-0.447 0.494,0.247 0.694,0.848 0.447,1.342 -2.181,4.361 -6.471,5.477 -6.652,5.523 -0.081,0.02 -0.163,0.029 -0.244,0.029 z m 16.002,0 c -0.08,0 -0.161,-0.01 -0.242,-0.03 -0.182,-0.045 -4.472,-1.162 -6.652,-5.523 -0.247,-0.494 -0.047,-1.095 0.447,-1.342 0.493,-0.247 1.094,-0.047 1.342,0.447 1.758,3.517 5.315,4.469 5.352,4.478 0.533,0.137 0.857,0.681 0.722,1.215 -0.116,0.453 -0.522,0.755 -0.969,0.755 z M 11,25.965844 c -3.623,0 -6.027,0.422 -9,1 -0.679,0.131 -2,0 -2,-2 0,-4 4.595,-9 11,-9 6.404,0 11,5 11,9 0,2 -1.321,2.132 -2,2 -2.973,-0.578 -5.377,-1 -9,-1 z"
     id="path4"
     style="fill:#292f33;fill-opacity:1"
     inkscape:connector-curvature="0" />
  <path
     d="m 3,22.000844 c 0,0 3,-1 8,-1 5,0 8,1 8,1 0,0 -2,-4 -8,-4 -6,0 -8,4 -8,4 z"
     id="path6"
     inkscape:connector-curvature="0"
     style="fill:#ffffff" />
</svg>
