<?xml version="1.0" encoding="UTF-8" standalone="no"?>
<svg
   xmlns:dc="http://purl.org/dc/elements/1.1/"
   xmlns:cc="http://creativecommons.org/ns#"
   xmlns:rdf="http://www.w3.org/1999/02/22-rdf-syntax-ns#"
   xmlns:svg="http://www.w3.org/2000/svg"
   xmlns="http://www.w3.org/2000/svg"
   xmlns:sodipodi="http://sodipodi.sourceforge.net/DTD/sodipodi-0.dtd"
   xmlns:inkscape="http://www.inkscape.org/namespaces/inkscape"
   viewBox="0 0 23.415661 32.315842"
   version="1.1"
   id="svg20"
   sodipodi:docname="zany.svg"
   inkscape:version="0.92.2 5c3e80d, 2017-08-06"
   width="23.415661"
   height="32.315842"
   inkscape:export-filename="/home/ryan/Documents/git/cubemoji/assets/zany.png"
   inkscape:export-xdpi="1048.6497"
   inkscape:export-ydpi="1048.6497">
  <metadata
     id="metadata26">
    <rdf:RDF>
      <cc:Work
         rdf:about="">
        <dc:format>image/svg+xml</dc:format>
        <dc:type
           rdf:resource="http://purl.org/dc/dcmitype/StillImage" />
        <dc:title></dc:title>
      </cc:Work>
    </rdf:RDF>
  </metadata>
  <defs
     id="defs24" />
  <sodipodi:namedview
     pagecolor="#ffffff"
     bordercolor="#666666"
     borderopacity="1"
     objecttolerance="10"
     gridtolerance="10"
     guidetolerance="10"
     inkscape:pageopacity="0"
     inkscape:pageshadow="2"
     inkscape:window-width="1920"
     inkscape:window-height="1053"
     id="namedview22"
     showgrid="false"
     inkscape:zoom="13.111111"
     inkscape:cx="-17.112194"
     inkscape:cy="13.266835"
     inkscape:window-x="0"
     inkscape:window-y="60"
     inkscape:window-maximized="1"
     inkscape:current-layer="svg20"
     fit-margin-top="0"
     fit-margin-left="0"
     fit-margin-right="0"
     fit-margin-bottom="0" />
  <path
     d="m 22.98431,5.3238426 c 0.779,3.636 -1.537,7.2160004 -5.173,7.9950004 -3.636,0.779 -7.216,-1.537 -7.9959995,-5.1730004 -0.779,-3.636 1.5369995,-7.216 5.1729995,-7.995 3.636,-0.779 7.217,1.536 7.996,5.173 z"
     id="path4"
     inkscape:connector-curvature="0"
     style="fill:#f4f7f9" />
  <circle
     cx="16.00631"
     cy="5.6028428"
     r="2.0369999"
     id="circle6"
     style="fill:#292f33" />
  <path
     d="m 7.7883105,10.593843 c 0.456,2.126 -0.899,4.219 -3.025,4.675 -2.126,0.456 -4.21900002,-0.899 -4.67500002,-3.025 -0.456,-2.126 0.899,-4.2190004 3.02500002,-4.6750004 2.126,-0.456 4.219,0.899 4.675,3.0250004 z"
     id="path8"
     inkscape:connector-curvature="0"
     style="fill:#f4f7f9" />
  <circle
     transform="rotate(-12.095)"
     cx="1.3019915"
     cy="12.72359"
     id="ellipse10"
     r="1.942"
     style="fill:#292f33" />
  <path
     d="m 12.32531,17.248843 c -3.5429995,0.759 -5.9809995,0.85 -9.0099995,0.908 -0.691,0.015 -1.955,0.419 -1.536,2.375 0.838,3.911 6.379,7.837 12.6419995,6.495 6.262,-1.342 9.708,-7.194 8.87,-11.105 -0.419,-1.956 -1.739,-1.808 -2.375,-1.536 -2.786,1.187 -5.048,2.104 -8.591,2.863 z"
     id="path12"
     style="fill:#292f33;fill-opacity:1"
     inkscape:connector-curvature="0" />
  <path
     d="m 4.7003105,20.315843 v 6 c 0,3 2,6 5.9999995,6 4,0 6,-3 6,-6 v -6 z"
     id="path14"
     inkscape:connector-curvature="0"
     style="fill:#e8596e" />
  <path
     d="m 10.70031,28.194843 c 0.301,0 0.545,-0.244 0.545,-0.545 v -6.295 h -1.091 v 6.295 c 10e-4,0.301 0.245,0.545 0.546,0.545 z"
     id="path16"
     inkscape:connector-curvature="0"
     style="fill:#dd2f45" />
  <path
     d="m 3.7343105,20.112843 c 0,0 3.143,0.349 9.0099995,-0.908 5.867,-1.257 8.591,-2.864 8.591,-2.864 0,0 -1.117,4.33 -7.962,5.797 -6.8449995,1.467 -9.6389995,-2.025 -9.6389995,-2.025 z"
     id="path18"
     inkscape:connector-curvature="0"
     style="fill:#ffffff" />
</svg>
